<?xml version="1.0" encoding="utf-8"?>
<svg version="1.1" id="Ebene_1" xmlns="http://www.w3.org/2000/svg" xmlns:xlink="http://www.w3.org/1999/xlink" x="0px" y="0px"
	 viewBox="0 0 623.6 623.6" enable-background="new 0 0 623.6 623.6" xml:space="preserve">
<path stroke="#000000" fill="hsl(20, 40%, 60%)" stroke-width="5" stroke-miterlimit="10" d="M437.1,239.5c-18.6-14-38.9-27.4-60.5-39.9
	c-21.7-12.5-43.4-23.3-64.8-32.5c-35.5-15.2-70-25.6-101.6-31.3c-68.6-12.2-123.3-1.4-143.9,34.2l0,0
	c49-84.7,140.6-141.7,245.5-141.7c41.2,0,77.9,42,101.6,107.5C424.3,166,432.5,201.1,437.1,239.5z"/>
<path stroke="#000000" fill="hsl(25, 40%, 60%)" stroke-width="5" stroke-miterlimit="10" d="M515,311.8c-20.7,24.5-47,49.2-77.9,72.4
	c2.8-23.1,4.3-47.3,4.3-72.4s-1.5-49.3-4.3-72.4c-4.6-38.3-12.8-73.5-23.7-103.6C389.7,70.3,353,28.3,311.8,28.3
	c104.9,0,196.5,57,245.5,141.7l0,0C577.9,205.7,559.8,258.5,515,311.8z"/>
<path stroke="#000000" fill="hsl(30, 40%, 60%)" stroke-width="5" stroke-miterlimit="10" d="M595.3,311.8c0,51.6-13.8,100-37.9,141.8l0,0
	c-20.6,35.7-75.3,46.4-143.9,34.2c-31.6-5.6-66.1-16.1-101.6-31.3c21.4-9.1,43.1-20,64.8-32.5c21.7-12.5,41.9-25.9,60.5-39.9
	c30.9-23.2,57.2-47.8,77.9-72.4c44.8-53.3,62.9-106.1,42.3-141.7l0,0C581.5,211.8,595.3,260.2,595.3,311.8z"/>
<path stroke="#000000" fill="hsl(35, 40%, 60%)" stroke-width="5" stroke-miterlimit="10" d="M557.3,453.6c-49,84.7-140.6,141.7-245.5,141.7
	c-41.2,0-77.9-42-101.6-107.5c-10.9-30.2-19.1-65.3-23.7-103.6c18.6,14,38.9,27.4,60.5,39.9c21.7,12.5,43.4,23.4,64.8,32.5
	c35.5,15.2,70,25.7,101.6,31.3C482,500,536.7,489.2,557.3,453.6L557.3,453.6z"/>
<path stroke="#000000" fill="hsl(40, 40%, 60%)" stroke-width="5" stroke-miterlimit="10" d="M311.8,595.3c-104.9,0-196.5-57-245.5-141.7l0,0
	c-20.6-35.7-2.5-88.4,42.3-141.7c20.7-24.5,47-49.2,77.9-72.4c-2.8,23.1-4.3,47.3-4.3,72.4s1.5,49.3,4.3,72.4
	c4.6,38.3,12.8,73.5,23.7,103.6C234,553.3,270.6,595.3,311.8,595.3z"/>
<path stroke="#000000" fill="hsl(45, 40%, 60%)" stroke-width="5" stroke-miterlimit="10" d="M311.8,167.1c-21.4,9.1-43.1,20-64.8,32.5
	c-21.7,12.5-41.9,25.9-60.5,39.9c-30.9,23.2-57.2,47.8-77.9,72.4c-44.8,53.3-62.9,106.1-42.3,141.7l0,0
	c-24.1-41.7-37.9-90.1-37.9-141.8s13.8-100,37.9-141.8l0,0c20.6-35.7,75.3-46.4,143.9-34.2C241.8,141.5,276.3,151.9,311.8,167.1z"/>
</svg>
